<?xml version="1.0" encoding="utf-8"?>
<!-- Generator: Adobe Illustrator 23.0.2, SVG Export Plug-In . SVG Version: 6.00 Build 0)  -->
<svg version="1.1" id="Ebene_1" xmlns="http://www.w3.org/2000/svg" xmlns:xlink="http://www.w3.org/1999/xlink" x="0px" y="0px"
	 viewBox="0 0 200 200" style="enable-background:new 0 0 200 200;" xml:space="preserve">
<style type="text/css">
	.st0{fill:none;stroke:#010202;stroke-width:8;stroke-miterlimit:10;}
	.st1{fill:#010202;}
	.st2{fill:none;stroke:#010202;stroke-width:4;stroke-linecap:round;stroke-miterlimit:10;}
</style>
<circle class="st0" cx="97.53" cy="100.15" r="78.56"/>
<path class="st1" d="M126.63,27.41c0,0,45.07,10.67,44.59,56.14C171.22,83.55,137.23,57.58,126.63,27.41z"/>
<path class="st1" d="M126.58,27.41c0,0,11.45,44.88-29.05,65.55C97.53,92.96,104.78,50.8,126.58,27.41z"/>
<path class="st1" d="M148.93,72.21c0,0,36.48,22.21,22.15,61.52C171.08,133.73,148.9,101.63,148.93,72.21z"/>
<path class="st1" d="M147.95,72.21c0,0-2.71,41.56-44.25,46.59C103.7,118.79,121.71,85.51,147.95,72.21z"/>
<path class="st1" d="M149.56,106.9c0,0,19.98,33.47-6.8,58.79C142.76,165.69,137.94,130.07,149.56,106.9z"/>
<path class="st1" d="M148.93,106.9c0,0-9.02,37.35-45.82,35.35C103.11,142.25,124.12,114.42,148.93,106.9z"/>
<path class="st1" d="M130.2,146.61c0,0-7.4,33.96-39.32,31.5C90.88,178.11,108.51,152.65,130.2,146.61z"/>
<path class="st1" d="M130.2,146.61c0,0-24.96,20.38-48.11-1.73C82.09,144.88,109.59,137.56,130.2,146.61z"/>
<path class="st1" d="M90.44,164.53c0,0-22.84,14.9-40.82-3.95C49.61,160.58,74.02,156.39,90.44,164.53z"/>
<path class="st1" d="M90.44,164.53c0,0-26.25-3.25-28.23-29.22C62.21,135.31,82.89,147.84,90.44,164.53z"/>
<path class="st1" d="M58.07,151.46c0,0-20.7,4.32-29.31-14.57C28.76,136.89,47.84,141.04,58.07,151.46z"/>
<path class="st1" d="M58.05,150.23c0,0-17.38-12.04-9.6-31.29C48.45,118.94,58.57,135.64,58.05,150.23z"/>
<path class="st2" d="M126.99,29.36c0,0,16.58,28.56,21.93,45.75s-2.68,43.68-2.68,43.68s-7.42,25.31-26.31,35.9
	c-18.89,10.59-35.48,8.83-35.48,8.83s-22.62-9.08-30.35-16.82c-7.73-7.75-16.03-17.76-18.89-22.91"/>
<circle class="st1" cx="33.47" cy="110.06" r="14.56"/>
</svg>
