<?xml version="1.0" encoding="utf-8"?>
<!-- Generator: Adobe Illustrator 23.0.2, SVG Export Plug-In . SVG Version: 6.00 Build 0)  -->
<svg version="1.1" id="Ebene_1" xmlns="http://www.w3.org/2000/svg" xmlns:xlink="http://www.w3.org/1999/xlink" x="0px" y="0px"
	 viewBox="0 0 200 200" style="enable-background:new 0 0 200 200;" xml:space="preserve">
<style type="text/css">
	.st0{fill:none;stroke:#010202;stroke-width:8;stroke-miterlimit:10;}
	.st1{fill:#010202;}
</style>
<circle class="st0" cx="99.61" cy="99.94" r="82.67"/>
<path class="st1" d="M98.2,15.95c-47.33,0-81.87,34.16-81.87,85.57c0,13.15,4.94,30.85,9.47,41.91c1.33,3.26,4.69,4.59,7.37,3.8
	l11.08,8.94c-4.72-4.32-7.22-15.05-8.04-19.23c-2.16-11.62-2.9-20.58-2.9-28.86c0-37.85,25-68.9,64.89-68.9
	c33.76,0,62.51,26.52,62.51,62.32c0,25.91-17.9,51.18-49.35,48.6c-16.99-1.4-30.41-18.98-30.41-33.8c0-15.2,5.92-26.51,18.69-26.51
	c12.38,0,17.9,10.64,11.72,20.99c-4.74,9.4,10.46,17.44,18.49,10.46c6.91-6.06,7.82-17.63,7.82-22.24c0-10.86-11.51-33.7-35.99-33.7
	c-30.86,0-47.71,24.68-47.71,49.36c0,36.19,25.34,59.24,61.08,59.24c45.66,0,68.71-41.14,68.71-72.39
	C183.75,53.4,143.47,15.95,98.2,15.95z"/>
</svg>
