<?xml version="1.0" encoding="utf-8"?>
<!-- Generator: Adobe Illustrator 23.0.2, SVG Export Plug-In . SVG Version: 6.00 Build 0)  -->
<svg version="1.1" id="Ebene_1" xmlns="http://www.w3.org/2000/svg" xmlns:xlink="http://www.w3.org/1999/xlink" x="0px" y="0px"
	 viewBox="0 0 200 200" style="enable-background:new 0 0 200 200;" xml:space="preserve">
<style type="text/css">
	.st0{fill:none;stroke:#010202;stroke-width:8;stroke-miterlimit:10;}
	.st1{fill:#A0A09F;}
	.st2{fill:#010202;}
</style>
<circle class="st0" cx="99.57" cy="98.43" r="78.56"/>
<path class="st1" d="M99.57,70.05c0,0-61.47,53.6-53.02,83.12s44.33-8.12,53.02-12c8.69,3.89,44.57,41.52,53.02,12
	C161.04,123.66,99.57,70.05,99.57,70.05z"/>
<circle class="st2" cx="39.38" cy="89.67" r="18.64"/>
<circle class="st2" cx="69.57" cy="46.28" r="18.64"/>
<circle class="st2" cx="159.49" cy="89.67" r="18.64"/>
<circle class="st2" cx="129.3" cy="46.28" r="18.64"/>
<path class="st2" d="M116.61,81.14c0,0-9.44-11.08-17.04-11.08c-0.06,0-0.13,0.01-0.19,0.01c-0.06,0-0.13-0.01-0.19-0.01
	c-7.6,0-17.26,11.36-17.04,11.08c-12.68,15.98-40.33,54.03-36.4,69.44c1.17,9.17,8.99,16.27,18.48,16.27
	c6.71,0,15.88-8.87,15.88-8.87s13.92-14.23,19.27-14.43c5.35,0.2,19.27,14.43,19.27,14.43s9.16,8.87,15.88,8.87
	c9.49,0,17.32-7.09,18.48-16.27C156.94,135.16,129.29,97.11,116.61,81.14z"/>
</svg>
