<?xml version="1.0" encoding="utf-8"?>
<!-- Generator: Adobe Illustrator 23.0.2, SVG Export Plug-In . SVG Version: 6.00 Build 0)  -->
<svg version="1.1" id="Ebene_1" xmlns="http://www.w3.org/2000/svg" xmlns:xlink="http://www.w3.org/1999/xlink" x="0px" y="0px"
	 viewBox="0 0 200 200" style="enable-background:new 0 0 200 200;" xml:space="preserve">
<style type="text/css">
	.st0{fill:none;stroke:#010202;stroke-width:8;stroke-miterlimit:10;}
	.st1{fill:#010202;}
</style>
<circle class="st0" cx="99.84" cy="99.73" r="78.28"/>
<path class="st1" d="M176.51,82.15c-7.64-34.03-37.64-59.66-73.89-60.92v0c-0.01,0-0.02,0-0.03,0c-0.33-0.01-0.66-0.04-0.99-0.04
	l0,0.02c-0.69-0.02-1.38-0.04-2.07-0.04c-0.74,0-1.48,0.01-2.21,0.03l-0.02,0.02c-36.36,1.15-66.48,26.82-74.14,60.93
	c-1.09,8.02-1.56,17.05-1.22,27.25c0,0,0,0.01,0,0.01c0.03,0.04,13.48,20.96,44.36,25.22l5.15,16.21h9.44l1.72-16.21h9.73
	l1.72,16.21h5.77l0-0.36h0.01l0,0.36h5.77l1.72-16.21h9.73l1.72,16.21h9.44l5.15-16.21c30.88-4.26,44.33-25.18,44.36-25.22
	c0,0,0-0.01,0-0.01C178.07,99.21,177.6,90.18,176.51,82.15z M43.38,88.16c0,0,50.23-66.33,112.9,0
	C93.61,154.49,43.38,88.16,43.38,88.16z"/>
<circle class="st1" cx="99.84" cy="88.16" r="20.75"/>
</svg>
